<?xml version="1.0" encoding="utf-8"?>
<!-- Generator: Adobe Illustrator 16.0.0, SVG Export Plug-In . SVG Version: 6.00 Build 0)  -->
<!DOCTYPE svg PUBLIC "-//W3C//DTD SVG 1.1//EN" "http://www.w3.org/Graphics/SVG/1.1/DTD/svg11.dtd">
<svg version="1.1" id="Layer_1" xmlns="http://www.w3.org/2000/svg" xmlns:xlink="http://www.w3.org/1999/xlink" x="0px" y="0px"
	 width="101px" height="81px" viewBox="0 0 101 81" style="enable-background:new 0 0 101 81;" xml:space="preserve">
<style type="text/css">
<![CDATA[
	.st0{fill:#EC2224;}
]]>
</style>
<g>
	<path d="M34.4,36.3c0.8-0.2,1.4-0.2,2.1-0.1c0.6,0.1,1.2,0.2,1.6,0.5c0.4,0.3,0.8,0.7,0.9,1.2c0.2,0.5,0.2,1.2,0.1,2
		c-0.2,1-0.6,1.8-1.1,2.5c-0.5,0.7-1.2,1.3-2,1.8l1.4,4.3c0,0.1,0,0.1,0,0.2c0,0.1-0.1,0.2-0.2,0.3c-0.1,0.1-0.2,0.2-0.3,0.2
		l-2.4,0.5c-0.3,0.1-0.4,0-0.5-0.1c-0.1-0.1-0.2-0.2-0.2-0.3l-1.3-3.8l-2,0.4l-0.9,4.3c0,0.1-0.1,0.3-0.2,0.4
		c-0.1,0.1-0.3,0.2-0.4,0.2l-2.5,0.5c-0.1,0-0.3,0-0.3-0.1C26,51.1,26,51,26,50.9l2.7-12.9c0-0.1,0.1-0.3,0.2-0.4
		c0.1-0.1,0.3-0.2,0.4-0.2L34.4,36.3z M31.1,42.7l2.2-0.4c0.5-0.1,1-0.3,1.4-0.6c0.4-0.3,0.7-0.7,0.8-1.3c0.1-0.6,0-0.9-0.3-1
		c-0.3-0.1-0.7-0.2-1.3,0l-2.2,0.4L31.1,42.7z"/>
	<path d="M48.1,33.5c0.3-0.1,0.4,0,0.5,0.1c0.1,0.1,0.2,0.2,0.2,0.4l1.7,11.7c0.1,0.5-0.1,0.7-0.5,0.8L47.6,47
		c-0.3,0.1-0.4,0-0.5-0.1C47,46.8,47,46.7,47,46.6l-0.2-1.5l-5.2,1l-0.9,1.8c-0.1,0.1-0.1,0.2-0.3,0.4c-0.1,0.1-0.3,0.2-0.6,0.3
		l-2.7,0.6c-0.2,0-0.3,0-0.3-0.1s0-0.3,0.1-0.5L43.7,35c0.1-0.2,0.2-0.3,0.4-0.5c0.2-0.2,0.4-0.3,0.6-0.3L48.1,33.5z M43.2,42.8
		l3.1-0.6l-0.6-4.5L43.2,42.8z"/>
	<path d="M58.9,31.3c0.8-0.2,1.5-0.2,2.2,0c0.7,0.1,1.3,0.4,1.8,0.8c0.5,0.4,0.8,0.9,1.1,1.5c0.2,0.6,0.3,1.3,0.1,2.2
		c-0.1,0.3-0.1,0.5-0.1,0.8s-0.1,0.5-0.1,0.7s-0.1,0.4-0.1,0.7c-0.1,0.2-0.1,0.5-0.2,0.7c-0.2,0.8-0.5,1.6-0.8,2.3
		c-0.4,0.7-0.8,1.3-1.4,1.9s-1.2,1-2,1.4s-1.7,0.7-2.7,0.9l-5.4,1.1c-0.1,0-0.3,0-0.3-0.1c-0.1-0.1-0.1-0.2-0.1-0.3l2.7-12.9
		c0-0.1,0.1-0.3,0.2-0.4c0.1-0.1,0.3-0.2,0.4-0.2L58.9,31.3z M60.5,36.2c0.2-1.5-0.5-2.1-2.2-1.8l-2,0.4l-1.5,7.6l2.1-0.4
		c1.6-0.3,2.6-1.3,3-2.8c0.1-0.6,0.2-1.1,0.3-1.5C60.3,37.3,60.4,36.8,60.5,36.2z"/>
	<path d="M63.8,43.7c-0.1,0-0.3,0-0.3-0.1c-0.1-0.1-0.1-0.2-0.1-0.3L66,30.4c0-0.1,0.1-0.3,0.2-0.4c0.1-0.1,0.3-0.2,0.4-0.2l2.5-0.5
		c0.1,0,0.3,0,0.3,0.1c0.1,0.1,0.1,0.2,0.1,0.3L67,42.5c0,0.1-0.1,0.3-0.2,0.4c-0.1,0.1-0.3,0.2-0.4,0.2L63.8,43.7z"/>
	<path d="M69.6,34.1c0.2-0.8,0.5-1.5,0.8-2.2s0.8-1.3,1.4-1.9c0.6-0.6,1.2-1.1,2-1.5c0.8-0.4,1.7-0.8,2.7-1c0.9-0.2,1.6-0.2,2.3-0.1
		c0.7,0.1,1.3,0.4,1.7,0.8c0.5,0.4,0.8,0.9,1,1.4c0.2,0.6,0.2,1.3,0.1,2c-0.1,0.6-0.2,1.2-0.3,1.8c-0.1,0.6-0.3,1.2-0.4,1.8
		c-0.2,0.8-0.5,1.5-0.8,2.2c-0.4,0.7-0.8,1.4-1.4,1.9c-0.6,0.6-1.2,1.1-2,1.5c-0.8,0.4-1.7,0.7-2.7,1c-0.9,0.2-1.6,0.2-2.3,0.1
		c-0.7-0.1-1.3-0.4-1.7-0.8c-0.5-0.4-0.8-0.9-1-1.5c-0.2-0.6-0.2-1.3-0.1-2c0.1-0.5,0.2-1.1,0.3-1.7C69.3,35.3,69.4,34.7,69.6,34.1z
		 M77.4,35.8c0.1-0.2,0.1-0.5,0.2-0.8s0.1-0.6,0.2-0.9c0.1-0.3,0.1-0.6,0.2-0.9c0.1-0.3,0.1-0.5,0.1-0.8c0-0.3,0-0.6,0-0.9
		c-0.1-0.3-0.2-0.5-0.3-0.6s-0.4-0.3-0.7-0.3c-0.3-0.1-0.6,0-1,0c-0.4,0.1-0.8,0.2-1.1,0.4c-0.3,0.2-0.6,0.4-0.8,0.6
		s-0.5,0.5-0.6,0.8c-0.2,0.3-0.3,0.6-0.4,1C73.1,33.7,73,34,73,34.3s-0.1,0.6-0.2,0.9c-0.1,0.3-0.1,0.6-0.2,0.9
		c-0.1,0.3-0.1,0.6-0.1,0.8c-0.1,0.7,0,1.2,0.3,1.5c0.3,0.4,0.8,0.5,1.7,0.3c0.8-0.2,1.5-0.5,1.9-1C76.9,37.1,77.2,36.5,77.4,35.8z"
		/>
</g>
<g>
	<path d="M21.8,15c1.1-0.2,2.1-0.3,3-0.2c0.9,0.1,1.7,0.4,2.4,0.9s1.1,1.1,1.4,1.9c0.3,0.8,0.3,1.8,0.1,2.9
		c-0.2,1.2-0.6,2.2-1.1,3.1c-0.5,0.9-1.1,1.7-1.8,2.3c-0.7,0.7-1.6,1.2-2.6,1.7c-1,0.5-2.2,0.8-3.6,1.1l-4,0.8l-1.3,6
		c0,0.2-0.1,0.4-0.3,0.6c-0.2,0.2-0.4,0.3-0.6,0.3l-3.8,0.8c-0.2,0-0.4,0-0.5-0.1C9,37,9,36.9,9,36.6l3.9-19.1
		c0-0.2,0.1-0.4,0.3-0.6c0.2-0.2,0.4-0.3,0.6-0.3L21.8,15z M16.5,24.9l3.5-0.7c0.8-0.2,1.5-0.5,2.1-1c0.6-0.5,1-1.1,1.2-2
		c0.2-0.8,0-1.4-0.4-1.6c-0.5-0.3-1.1-0.3-1.9-0.1l-3.5,0.7L16.5,24.9z"/>
	<path d="M39.1,11.4c1.1-0.2,2.1-0.3,3.1-0.2c1,0.1,1.8,0.4,2.4,0.8c0.7,0.4,1.1,1,1.4,1.8c0.3,0.8,0.3,1.8,0.1,2.9
		c-0.3,1.5-0.8,2.7-1.6,3.7c-0.8,1-1.8,1.9-3,2.6l2.1,6.3c0,0.1,0,0.2,0,0.3c0,0.2-0.1,0.3-0.3,0.5c-0.1,0.2-0.3,0.2-0.5,0.3
		l-3.6,0.7c-0.4,0.1-0.6,0-0.8-0.1c-0.1-0.1-0.2-0.3-0.3-0.5L36.3,25l-2.9,0.6L32.1,32c0,0.2-0.1,0.4-0.3,0.6
		c-0.2,0.2-0.4,0.3-0.6,0.3l-3.8,0.8c-0.2,0-0.4,0-0.5-0.1c-0.1-0.1-0.2-0.3-0.1-0.5l3.9-19.1c0-0.2,0.1-0.4,0.3-0.6
		c0.2-0.2,0.4-0.3,0.6-0.3L39.1,11.4z M34.3,21l3.3-0.7c0.8-0.2,1.5-0.5,2.1-0.9c0.6-0.4,1-1,1.1-1.9c0.2-0.8,0-1.3-0.5-1.6
		c-0.5-0.2-1.1-0.2-1.9-0.1l-3.3,0.7L34.3,21z"/>
	<path d="M46.6,17.3c0.3-1.1,0.7-2.2,1.2-3.2c0.5-1,1.2-2,2-2.9c0.8-0.9,1.8-1.6,3-2.3c1.2-0.6,2.5-1.1,4.1-1.4
		c1.3-0.3,2.4-0.3,3.4-0.1c1,0.2,1.9,0.6,2.5,1.1c0.7,0.6,1.2,1.3,1.5,2.1c0.3,0.9,0.4,1.9,0.2,3c-0.1,0.8-0.3,1.7-0.5,2.7
		c-0.2,0.9-0.4,1.8-0.6,2.6c-0.3,1.1-0.7,2.2-1.2,3.2s-1.2,2-2.1,2.9c-0.8,0.9-1.8,1.6-3,2.3c-1.2,0.6-2.5,1.1-4.1,1.4
		c-1.3,0.3-2.4,0.3-3.4,0.1c-1-0.2-1.9-0.6-2.5-1.1c-0.7-0.6-1.2-1.3-1.5-2.2c-0.3-0.9-0.4-1.9-0.2-3c0.1-0.8,0.3-1.7,0.5-2.6
		C46.1,19.1,46.4,18.2,46.6,17.3z M58.1,19.9c0.1-0.4,0.2-0.8,0.3-1.2c0.1-0.4,0.2-0.9,0.3-1.3c0.1-0.5,0.2-0.9,0.3-1.3
		c0.1-0.4,0.1-0.8,0.2-1.1c0.1-0.5,0-0.9,0-1.3c-0.1-0.4-0.2-0.7-0.5-0.9s-0.6-0.4-1-0.5c-0.4-0.1-0.9-0.1-1.5,0s-1.1,0.3-1.6,0.6
		c-0.5,0.3-0.9,0.6-1.2,0.9c-0.4,0.4-0.7,0.8-0.9,1.2c-0.2,0.4-0.4,0.9-0.6,1.4c-0.1,0.3-0.2,0.7-0.3,1.2c-0.1,0.4-0.2,0.9-0.3,1.3
		c-0.1,0.5-0.2,0.9-0.3,1.3c-0.1,0.4-0.1,0.8-0.2,1.2c-0.1,1,0.1,1.7,0.5,2.3c0.4,0.5,1.3,0.7,2.4,0.4c1.2-0.2,2.2-0.8,2.9-1.5
		C57.4,21.8,57.9,20.9,58.1,19.9z"/>
</g>
<g>
	<path d="M90.4,19.7c-1.4-1.4-3.4-1.8-5.8-1.4L76.8,20l-0.6,3.1l8.4-1.8c1.4-0.3,2.6,0,3.5,0.8s1.1,2,0.8,3.4l-2.4,13.2
		c-0.6,3.2-3.7,6.4-6.9,7L24.2,57l-8.4,8.1l5.8-26.2l-3.1,0.6l-7.4,33.8l14.1-13.6l54.4-11.1c4.6-0.9,9-5.4,9.8-10l2.4-13.2
		C92.3,23.1,91.7,21,90.4,19.7z"/>
</g>
<path class="st0" d="M73.5,18.9c0.6,2-0.6,4.7-2.7,6c-2.1,1.3-4.3,0.7-5-1.3s0.6-4.7,2.7-6C70.6,16.3,72.8,16.9,73.5,18.9z"/>
</svg>
